<mxfile host="app.diagrams.net" agent="Mozilla/5.0 (Windows NT 10.0; Win64; x64) AppleWebKit/537.36 (KHTML, like Gecko) Chrome/141.0.0.0 Safari/537.36" version="28.2.7">
  <diagram name="Страница — 1" id="_6Lqh0dxbF2gqRYCSrHK">
    <mxGraphModel dx="2492" dy="777" grid="1" gridSize="10" guides="1" tooltips="1" connect="1" arrows="1" fold="1" page="1" pageScale="1" pageWidth="827" pageHeight="1169" math="0" shadow="0">
      <root>
        <mxCell id="0" />
        <mxCell id="1" parent="0" />
        <mxCell id="d3LHIQOPCbbFNZvqJ1-8-1" value="" style="rounded=0;whiteSpace=wrap;html=1;fillColor=#f5f5f5;fontColor=#333333;strokeColor=#666666;" parent="1" vertex="1">
          <mxGeometry x="-320" y="110" width="180" height="120" as="geometry" />
        </mxCell>
        <mxCell id="d3LHIQOPCbbFNZvqJ1-8-2" value="Вход А11" style="rounded=0;whiteSpace=wrap;html=1;fillColor=#f5f5f5;fontColor=#333333;strokeColor=#666666;" parent="1" vertex="1">
          <mxGeometry x="-320" y="90" width="60" height="20" as="geometry" />
        </mxCell>
        <mxCell id="d3LHIQOPCbbFNZvqJ1-8-4" value="Статистика продаж" style="ellipse;whiteSpace=wrap;html=1;fillColor=#f5f5f5;fontColor=#333333;strokeColor=#666666;" parent="1" vertex="1">
          <mxGeometry x="-310" y="120" width="70" height="50" as="geometry" />
        </mxCell>
        <mxCell id="d3LHIQOPCbbFNZvqJ1-8-5" value="Сезонный спрос" style="ellipse;whiteSpace=wrap;html=1;fillColor=#f5f5f5;fontColor=#333333;strokeColor=#666666;" parent="1" vertex="1">
          <mxGeometry x="-230" y="125" width="80" height="40" as="geometry" />
        </mxCell>
        <mxCell id="d3LHIQOPCbbFNZvqJ1-8-6" value="Данные об остатках" style="ellipse;whiteSpace=wrap;html=1;fillColor=#f5f5f5;fontColor=#333333;strokeColor=#666666;" parent="1" vertex="1">
          <mxGeometry x="-270" y="180" width="80" height="40" as="geometry" />
        </mxCell>
        <mxCell id="d3LHIQOPCbbFNZvqJ1-8-7" value="" style="rounded=0;whiteSpace=wrap;html=1;fillColor=#ffe6cc;strokeColor=#d79b00;" parent="1" vertex="1">
          <mxGeometry x="-20" y="110" width="240" height="120" as="geometry" />
        </mxCell>
        <mxCell id="d3LHIQOPCbbFNZvqJ1-8-8" value="Контроль А11" style="rounded=0;whiteSpace=wrap;html=1;fillColor=#ffe6cc;strokeColor=#d79b00;" parent="1" vertex="1">
          <mxGeometry x="-20" y="90" width="90" height="20" as="geometry" />
        </mxCell>
        <mxCell id="d3LHIQOPCbbFNZvqJ1-8-9" value="Бюджет закупок" style="ellipse;whiteSpace=wrap;html=1;fillColor=#ffe6cc;strokeColor=#d79b00;" parent="1" vertex="1">
          <mxGeometry y="120" width="90" height="40" as="geometry" />
        </mxCell>
        <mxCell id="d3LHIQOPCbbFNZvqJ1-8-10" value="Ассортиментная матрица" style="ellipse;whiteSpace=wrap;html=1;fillColor=#ffe6cc;strokeColor=#d79b00;" parent="1" vertex="1">
          <mxGeometry x="110" y="120" width="110" height="40" as="geometry" />
        </mxCell>
        <mxCell id="d3LHIQOPCbbFNZvqJ1-8-11" value="План закупок" style="ellipse;whiteSpace=wrap;html=1;fillColor=#ffe6cc;strokeColor=#d79b00;" parent="1" vertex="1">
          <mxGeometry x="55" y="170" width="90" height="40" as="geometry" />
        </mxCell>
        <mxCell id="d3LHIQOPCbbFNZvqJ1-8-12" value="" style="whiteSpace=wrap;html=1;aspect=fixed;" parent="1" vertex="1">
          <mxGeometry x="-140" y="280" width="240" height="240" as="geometry" />
        </mxCell>
        <mxCell id="d3LHIQOPCbbFNZvqJ1-8-13" value="А1: Управление товарными запасами" style="rounded=0;whiteSpace=wrap;html=1;" parent="1" vertex="1">
          <mxGeometry x="-140" y="250" width="180" height="30" as="geometry" />
        </mxCell>
        <mxCell id="d3LHIQOPCbbFNZvqJ1-8-15" value="А11&lt;div&gt;Планирование закупок&lt;/div&gt;" style="rounded=0;whiteSpace=wrap;html=1;fillColor=#d5e8d4;strokeColor=#82b366;" parent="1" vertex="1">
          <mxGeometry x="-120" y="300" width="100" height="50" as="geometry" />
        </mxCell>
        <mxCell id="d3LHIQOPCbbFNZvqJ1-8-16" value="А12&lt;div&gt;Приемка и учет товара&lt;/div&gt;" style="rounded=0;whiteSpace=wrap;html=1;fillColor=#d5e8d4;strokeColor=#82b366;" parent="1" vertex="1">
          <mxGeometry x="-30" y="370" width="120" height="50" as="geometry" />
        </mxCell>
        <mxCell id="d3LHIQOPCbbFNZvqJ1-8-17" value="А13&lt;div&gt;Учет остатков и инвертаризация&lt;/div&gt;" style="rounded=0;whiteSpace=wrap;html=1;fillColor=#008a00;strokeColor=#005700;fontColor=#ffffff;" parent="1" vertex="1">
          <mxGeometry x="-70" y="455" width="120" height="60" as="geometry" />
        </mxCell>
        <mxCell id="d3LHIQOPCbbFNZvqJ1-8-18" value="" style="rounded=0;whiteSpace=wrap;html=1;fillColor=#e1d5e7;strokeColor=#9673a6;" parent="1" vertex="1">
          <mxGeometry x="210" y="280" width="270" height="70" as="geometry" />
        </mxCell>
        <mxCell id="d3LHIQOPCbbFNZvqJ1-8-19" value="Вход А12" style="rounded=0;whiteSpace=wrap;html=1;fillColor=#e1d5e7;strokeColor=#9673a6;" parent="1" vertex="1">
          <mxGeometry x="210" y="260" width="120" height="20" as="geometry" />
        </mxCell>
        <mxCell id="d3LHIQOPCbbFNZvqJ1-8-20" value="Сопроводительные документы" style="ellipse;whiteSpace=wrap;html=1;fillColor=#e1d5e7;strokeColor=#9673a6;" parent="1" vertex="1">
          <mxGeometry x="220" y="290" width="120" height="50" as="geometry" />
        </mxCell>
        <mxCell id="d3LHIQOPCbbFNZvqJ1-8-21" value="Товары от поставщиков" style="ellipse;whiteSpace=wrap;html=1;fillColor=#e1d5e7;strokeColor=#9673a6;" parent="1" vertex="1">
          <mxGeometry x="350" y="295" width="120" height="40" as="geometry" />
        </mxCell>
        <mxCell id="d3LHIQOPCbbFNZvqJ1-8-22" value="" style="rounded=0;whiteSpace=wrap;html=1;fillColor=#dae8fc;strokeColor=#6c8ebf;" parent="1" vertex="1">
          <mxGeometry x="350" y="140" width="280" height="100" as="geometry" />
        </mxCell>
        <mxCell id="d3LHIQOPCbbFNZvqJ1-8-23" value="Механизмы" style="rounded=0;whiteSpace=wrap;html=1;fillColor=#dae8fc;strokeColor=#6c8ebf;" parent="1" vertex="1">
          <mxGeometry x="350" y="120" width="120" height="20" as="geometry" />
        </mxCell>
        <mxCell id="d3LHIQOPCbbFNZvqJ1-8-24" value="Менеджер по закупкам" style="ellipse;whiteSpace=wrap;html=1;fillColor=#dae8fc;strokeColor=#6c8ebf;" parent="1" vertex="1">
          <mxGeometry x="360" y="150" width="120" height="40" as="geometry" />
        </mxCell>
        <mxCell id="d3LHIQOPCbbFNZvqJ1-8-25" value="Кладовщик" style="ellipse;whiteSpace=wrap;html=1;fillColor=#dae8fc;strokeColor=#6c8ebf;" parent="1" vertex="1">
          <mxGeometry x="500" y="150" width="120" height="40" as="geometry" />
        </mxCell>
        <mxCell id="d3LHIQOPCbbFNZvqJ1-8-26" value="Складской работник" style="ellipse;whiteSpace=wrap;html=1;fillColor=#dae8fc;strokeColor=#6c8ebf;" parent="1" vertex="1">
          <mxGeometry x="430" y="190" width="120" height="40" as="geometry" />
        </mxCell>
        <mxCell id="d3LHIQOPCbbFNZvqJ1-8-28" value="" style="rounded=0;whiteSpace=wrap;html=1;fillColor=#f8cecc;strokeColor=#b85450;" parent="1" vertex="1">
          <mxGeometry x="547" y="280" width="280" height="70" as="geometry" />
        </mxCell>
        <mxCell id="d3LHIQOPCbbFNZvqJ1-8-29" value="Контроль А12" style="rounded=0;whiteSpace=wrap;html=1;fillColor=#f8cecc;strokeColor=#b85450;" parent="1" vertex="1">
          <mxGeometry x="547" y="260" width="90" height="20" as="geometry" />
        </mxCell>
        <mxCell id="d3LHIQOPCbbFNZvqJ1-8-30" value="Стандарты качества" style="ellipse;whiteSpace=wrap;html=1;fillColor=#f8cecc;strokeColor=#b85450;" parent="1" vertex="1">
          <mxGeometry x="560" y="295" width="120" height="40" as="geometry" />
        </mxCell>
        <mxCell id="d3LHIQOPCbbFNZvqJ1-8-31" value="Условия приемки" style="ellipse;whiteSpace=wrap;html=1;fillColor=#f8cecc;strokeColor=#b85450;" parent="1" vertex="1">
          <mxGeometry x="700" y="295" width="120" height="40" as="geometry" />
        </mxCell>
        <mxCell id="d3LHIQOPCbbFNZvqJ1-8-32" value="" style="rounded=0;whiteSpace=wrap;html=1;fillColor=#e1d5e7;strokeColor=#9673a6;" parent="1" vertex="1">
          <mxGeometry x="210" y="450" width="260" height="70" as="geometry" />
        </mxCell>
        <mxCell id="d3LHIQOPCbbFNZvqJ1-8-33" value="Вход А13" style="rounded=0;whiteSpace=wrap;html=1;fillColor=#e1d5e7;strokeColor=#9673a6;" parent="1" vertex="1">
          <mxGeometry x="210" y="430" width="80" height="20" as="geometry" />
        </mxCell>
        <mxCell id="d3LHIQOPCbbFNZvqJ1-8-34" value="Данные о движении товара" style="ellipse;whiteSpace=wrap;html=1;fillColor=#e1d5e7;strokeColor=#9673a6;" parent="1" vertex="1">
          <mxGeometry x="270" y="460" width="120" height="50" as="geometry" />
        </mxCell>
        <mxCell id="d3LHIQOPCbbFNZvqJ1-8-35" value="" style="rounded=0;whiteSpace=wrap;html=1;fillColor=#f8cecc;strokeColor=#b85450;" parent="1" vertex="1">
          <mxGeometry x="547" y="460" width="253" height="80" as="geometry" />
        </mxCell>
        <mxCell id="d3LHIQOPCbbFNZvqJ1-8-36" value="Контроль А13" style="rounded=0;whiteSpace=wrap;html=1;fillColor=#f8cecc;strokeColor=#b85450;" parent="1" vertex="1">
          <mxGeometry x="547" y="440" width="120" height="20" as="geometry" />
        </mxCell>
        <mxCell id="d3LHIQOPCbbFNZvqJ1-8-37" value="График инвентаризации" style="ellipse;whiteSpace=wrap;html=1;fillColor=#f8cecc;strokeColor=#b85450;" parent="1" vertex="1">
          <mxGeometry x="560" y="475" width="120" height="50" as="geometry" />
        </mxCell>
        <mxCell id="d3LHIQOPCbbFNZvqJ1-8-38" value="Нормы остатков" style="ellipse;whiteSpace=wrap;html=1;fillColor=#f8cecc;strokeColor=#b85450;" parent="1" vertex="1">
          <mxGeometry x="690" y="477.5" width="110" height="45" as="geometry" />
        </mxCell>
        <mxCell id="d3LHIQOPCbbFNZvqJ1-8-39" value="" style="rounded=0;whiteSpace=wrap;html=1;fillColor=#fff2cc;strokeColor=#d6b656;" parent="1" vertex="1">
          <mxGeometry x="-310" y="630" width="620" height="140" as="geometry" />
        </mxCell>
        <mxCell id="d3LHIQOPCbbFNZvqJ1-8-41" value="Заявки поставщиков" style="ellipse;whiteSpace=wrap;html=1;fillColor=#fff2cc;strokeColor=#d6b656;" parent="1" vertex="1">
          <mxGeometry x="-315" y="650" width="120" height="40" as="geometry" />
        </mxCell>
        <mxCell id="d3LHIQOPCbbFNZvqJ1-8-42" value="План поставок" style="ellipse;whiteSpace=wrap;html=1;fillColor=#fff2cc;strokeColor=#d6b656;" parent="1" vertex="1">
          <mxGeometry x="-160" y="650" width="120" height="40" as="geometry" />
        </mxCell>
        <mxCell id="d3LHIQOPCbbFNZvqJ1-8-43" value="Оприходованный товар" style="ellipse;whiteSpace=wrap;html=1;fillColor=#fff2cc;strokeColor=#d6b656;" parent="1" vertex="1">
          <mxGeometry x="10" y="650" width="120" height="40" as="geometry" />
        </mxCell>
        <mxCell id="d3LHIQOPCbbFNZvqJ1-8-44" value="Акты приемки" style="ellipse;whiteSpace=wrap;html=1;fillColor=#fff2cc;strokeColor=#d6b656;" parent="1" vertex="1">
          <mxGeometry x="150" y="650" width="120" height="40" as="geometry" />
        </mxCell>
        <mxCell id="d3LHIQOPCbbFNZvqJ1-8-45" value="Отчеты по остаткам" style="ellipse;whiteSpace=wrap;html=1;fillColor=#fff2cc;strokeColor=#d6b656;" parent="1" vertex="1">
          <mxGeometry x="-165" y="720" width="120" height="40" as="geometry" />
        </mxCell>
        <mxCell id="d3LHIQOPCbbFNZvqJ1-8-46" value="Акты инвентаризации" style="ellipse;whiteSpace=wrap;html=1;fillColor=#fff2cc;strokeColor=#d6b656;" parent="1" vertex="1">
          <mxGeometry x="25" y="720" width="120" height="40" as="geometry" />
        </mxCell>
        <mxCell id="d3LHIQOPCbbFNZvqJ1-8-48" value="" style="endArrow=classic;html=1;rounded=0;exitX=0.5;exitY=1;exitDx=0;exitDy=0;entryX=0;entryY=1;entryDx=0;entryDy=0;strokeColor=#000000;" parent="1" source="d3LHIQOPCbbFNZvqJ1-8-4" target="d3LHIQOPCbbFNZvqJ1-8-15" edge="1">
          <mxGeometry width="50" height="50" relative="1" as="geometry">
            <mxPoint x="-390" y="300" as="sourcePoint" />
            <mxPoint x="-340" y="250" as="targetPoint" />
            <Array as="points">
              <mxPoint x="-270" y="280" />
            </Array>
          </mxGeometry>
        </mxCell>
        <mxCell id="d3LHIQOPCbbFNZvqJ1-8-49" value="" style="endArrow=classic;html=1;rounded=0;exitX=0.5;exitY=1;exitDx=0;exitDy=0;entryX=0;entryY=0;entryDx=0;entryDy=0;" parent="1" source="d3LHIQOPCbbFNZvqJ1-8-5" target="d3LHIQOPCbbFNZvqJ1-8-15" edge="1">
          <mxGeometry width="50" height="50" relative="1" as="geometry">
            <mxPoint x="-80" y="180" as="sourcePoint" />
            <mxPoint x="-30" y="130" as="targetPoint" />
          </mxGeometry>
        </mxCell>
        <mxCell id="d3LHIQOPCbbFNZvqJ1-8-50" value="" style="endArrow=classic;html=1;rounded=0;exitX=0.5;exitY=1;exitDx=0;exitDy=0;entryX=0;entryY=0.5;entryDx=0;entryDy=0;" parent="1" source="d3LHIQOPCbbFNZvqJ1-8-6" target="d3LHIQOPCbbFNZvqJ1-8-15" edge="1">
          <mxGeometry width="50" height="50" relative="1" as="geometry">
            <mxPoint x="-260" y="420" as="sourcePoint" />
            <mxPoint x="-210" y="370" as="targetPoint" />
          </mxGeometry>
        </mxCell>
        <mxCell id="d3LHIQOPCbbFNZvqJ1-8-51" value="" style="endArrow=classic;html=1;rounded=0;exitX=0;exitY=0.5;exitDx=0;exitDy=0;entryX=0.25;entryY=0;entryDx=0;entryDy=0;fillColor=#f0a30a;strokeColor=#BD7000;" parent="1" source="d3LHIQOPCbbFNZvqJ1-8-9" target="d3LHIQOPCbbFNZvqJ1-8-15" edge="1">
          <mxGeometry width="50" height="50" relative="1" as="geometry">
            <mxPoint x="-290" y="480" as="sourcePoint" />
            <mxPoint x="-240" y="430" as="targetPoint" />
          </mxGeometry>
        </mxCell>
        <mxCell id="d3LHIQOPCbbFNZvqJ1-8-52" value="" style="endArrow=classic;html=1;rounded=0;exitX=0;exitY=0.5;exitDx=0;exitDy=0;entryX=0.5;entryY=0;entryDx=0;entryDy=0;fillColor=#f0a30a;strokeColor=#BD7000;" parent="1" source="d3LHIQOPCbbFNZvqJ1-8-10" target="d3LHIQOPCbbFNZvqJ1-8-15" edge="1">
          <mxGeometry width="50" height="50" relative="1" as="geometry">
            <mxPoint x="250" y="240" as="sourcePoint" />
            <mxPoint x="300" y="190" as="targetPoint" />
            <Array as="points">
              <mxPoint x="20" y="200" />
            </Array>
          </mxGeometry>
        </mxCell>
        <mxCell id="d3LHIQOPCbbFNZvqJ1-8-53" value="" style="endArrow=classic;html=1;rounded=0;exitX=0.5;exitY=1;exitDx=0;exitDy=0;entryX=1;entryY=0;entryDx=0;entryDy=0;fillColor=#f0a30a;strokeColor=#BD7000;" parent="1" source="d3LHIQOPCbbFNZvqJ1-8-11" target="d3LHIQOPCbbFNZvqJ1-8-15" edge="1">
          <mxGeometry width="50" height="50" relative="1" as="geometry">
            <mxPoint x="130" y="340" as="sourcePoint" />
            <mxPoint x="180" y="290" as="targetPoint" />
          </mxGeometry>
        </mxCell>
        <mxCell id="d3LHIQOPCbbFNZvqJ1-8-54" value="" style="endArrow=classic;html=1;rounded=0;exitX=0;exitY=0.5;exitDx=0;exitDy=0;entryX=1;entryY=0.25;entryDx=0;entryDy=0;fillColor=#1ba1e2;strokeColor=#006EAF;" parent="1" source="d3LHIQOPCbbFNZvqJ1-8-24" target="d3LHIQOPCbbFNZvqJ1-8-15" edge="1">
          <mxGeometry width="50" height="50" relative="1" as="geometry">
            <mxPoint x="120" y="370" as="sourcePoint" />
            <mxPoint x="170" y="320" as="targetPoint" />
            <Array as="points">
              <mxPoint x="190" y="250" />
            </Array>
          </mxGeometry>
        </mxCell>
        <mxCell id="d3LHIQOPCbbFNZvqJ1-8-55" value="" style="endArrow=classic;html=1;rounded=0;exitX=1;exitY=1;exitDx=0;exitDy=0;entryX=0.5;entryY=0;entryDx=0;entryDy=0;fillColor=#d5e8d4;gradientColor=#97d077;strokeColor=#82b366;" parent="1" source="d3LHIQOPCbbFNZvqJ1-8-15" target="d3LHIQOPCbbFNZvqJ1-8-16" edge="1">
          <mxGeometry width="50" height="50" relative="1" as="geometry">
            <mxPoint x="120" y="390" as="sourcePoint" />
            <mxPoint x="170" y="340" as="targetPoint" />
          </mxGeometry>
        </mxCell>
        <mxCell id="d3LHIQOPCbbFNZvqJ1-8-56" value="План закупок" style="text;html=1;whiteSpace=wrap;strokeColor=none;fillColor=none;align=center;verticalAlign=middle;rounded=0;" parent="1" vertex="1">
          <mxGeometry y="330" width="60" height="30" as="geometry" />
        </mxCell>
        <mxCell id="d3LHIQOPCbbFNZvqJ1-8-57" value="" style="endArrow=classic;html=1;rounded=0;exitX=0.5;exitY=1;exitDx=0;exitDy=0;entryX=1;entryY=0.5;entryDx=0;entryDy=0;fillColor=#1ba1e2;strokeColor=#006EAF;" parent="1" source="d3LHIQOPCbbFNZvqJ1-8-26" target="d3LHIQOPCbbFNZvqJ1-8-16" edge="1">
          <mxGeometry width="50" height="50" relative="1" as="geometry">
            <mxPoint x="420" y="470" as="sourcePoint" />
            <mxPoint x="490" y="420" as="targetPoint" />
            <Array as="points">
              <mxPoint x="490" y="395" />
            </Array>
          </mxGeometry>
        </mxCell>
        <mxCell id="d3LHIQOPCbbFNZvqJ1-8-58" value="" style="endArrow=classic;html=1;rounded=0;exitX=1;exitY=0.5;exitDx=0;exitDy=0;entryX=1;entryY=0.75;entryDx=0;entryDy=0;fillColor=#1ba1e2;strokeColor=#006EAF;" parent="1" edge="1">
          <mxGeometry width="50" height="50" relative="1" as="geometry">
            <mxPoint x="618.5" y="180" as="sourcePoint" />
            <mxPoint x="48.5" y="495" as="targetPoint" />
            <Array as="points">
              <mxPoint x="898.5" y="180" />
              <mxPoint x="848.5" y="580" />
              <mxPoint x="438.5" y="600" />
              <mxPoint x="238.5" y="560" />
            </Array>
          </mxGeometry>
        </mxCell>
        <mxCell id="d3LHIQOPCbbFNZvqJ1-8-60" value="" style="endArrow=classic;html=1;rounded=0;exitX=0;exitY=0.5;exitDx=0;exitDy=0;entryX=1;entryY=0;entryDx=0;entryDy=0;fillColor=#6a00ff;strokeColor=#3700CC;" parent="1" source="d3LHIQOPCbbFNZvqJ1-8-20" target="d3LHIQOPCbbFNZvqJ1-8-16" edge="1">
          <mxGeometry width="50" height="50" relative="1" as="geometry">
            <mxPoint x="490" y="480" as="sourcePoint" />
            <mxPoint x="540" y="430" as="targetPoint" />
          </mxGeometry>
        </mxCell>
        <mxCell id="d3LHIQOPCbbFNZvqJ1-8-61" value="" style="endArrow=classic;html=1;rounded=0;exitX=0.5;exitY=1;exitDx=0;exitDy=0;entryX=1;entryY=0.25;entryDx=0;entryDy=0;fillColor=#6a00ff;strokeColor=#3700CC;" parent="1" source="d3LHIQOPCbbFNZvqJ1-8-21" target="d3LHIQOPCbbFNZvqJ1-8-16" edge="1">
          <mxGeometry width="50" height="50" relative="1" as="geometry">
            <mxPoint x="320" y="430" as="sourcePoint" />
            <mxPoint x="370" y="380" as="targetPoint" />
            <Array as="points">
              <mxPoint x="410" y="380" />
              <mxPoint x="230" y="380" />
            </Array>
          </mxGeometry>
        </mxCell>
        <mxCell id="d3LHIQOPCbbFNZvqJ1-8-62" value="" style="endArrow=classic;html=1;rounded=0;exitX=0.5;exitY=1;exitDx=0;exitDy=0;entryX=1;entryY=0.75;entryDx=0;entryDy=0;fillColor=#e51400;strokeColor=#B20000;" parent="1" source="d3LHIQOPCbbFNZvqJ1-8-30" target="d3LHIQOPCbbFNZvqJ1-8-16" edge="1">
          <mxGeometry width="50" height="50" relative="1" as="geometry">
            <mxPoint x="530" y="420" as="sourcePoint" />
            <mxPoint x="230" y="410" as="targetPoint" />
            <Array as="points">
              <mxPoint x="620" y="400" />
            </Array>
          </mxGeometry>
        </mxCell>
        <mxCell id="d3LHIQOPCbbFNZvqJ1-8-63" value="" style="endArrow=classic;html=1;rounded=0;exitX=0.5;exitY=1;exitDx=0;exitDy=0;entryX=1;entryY=1;entryDx=0;entryDy=0;fillColor=#e51400;strokeColor=#B20000;" parent="1" source="d3LHIQOPCbbFNZvqJ1-8-31" target="d3LHIQOPCbbFNZvqJ1-8-16" edge="1">
          <mxGeometry width="50" height="50" relative="1" as="geometry">
            <mxPoint x="650" y="390" as="sourcePoint" />
            <mxPoint x="400" y="420" as="targetPoint" />
            <Array as="points">
              <mxPoint x="760" y="410" />
              <mxPoint x="190" y="420" />
            </Array>
          </mxGeometry>
        </mxCell>
        <mxCell id="d3LHIQOPCbbFNZvqJ1-8-64" value="" style="endArrow=classic;html=1;rounded=0;exitX=0;exitY=0.5;exitDx=0;exitDy=0;entryX=1;entryY=0;entryDx=0;entryDy=0;fillColor=#6a00ff;strokeColor=#3700CC;" parent="1" source="d3LHIQOPCbbFNZvqJ1-8-34" target="d3LHIQOPCbbFNZvqJ1-8-17" edge="1">
          <mxGeometry width="50" height="50" relative="1" as="geometry">
            <mxPoint x="110" y="580" as="sourcePoint" />
            <mxPoint x="160" y="530" as="targetPoint" />
          </mxGeometry>
        </mxCell>
        <mxCell id="d3LHIQOPCbbFNZvqJ1-8-65" value="" style="endArrow=classic;html=1;rounded=0;exitX=0;exitY=0.5;exitDx=0;exitDy=0;entryX=0.983;entryY=0.367;entryDx=0;entryDy=0;entryPerimeter=0;fillColor=#e51400;strokeColor=#B20000;" parent="1" source="d3LHIQOPCbbFNZvqJ1-8-37" target="d3LHIQOPCbbFNZvqJ1-8-17" edge="1">
          <mxGeometry width="50" height="50" relative="1" as="geometry">
            <mxPoint x="460" y="580" as="sourcePoint" />
            <mxPoint x="340" y="560" as="targetPoint" />
            <Array as="points">
              <mxPoint x="450" y="580" />
              <mxPoint x="230" y="540" />
            </Array>
          </mxGeometry>
        </mxCell>
        <mxCell id="d3LHIQOPCbbFNZvqJ1-8-66" value="" style="endArrow=classic;html=1;rounded=0;exitX=0.5;exitY=1;exitDx=0;exitDy=0;entryX=1;entryY=0.75;entryDx=0;entryDy=0;fillColor=#e51400;strokeColor=#B20000;" parent="1" source="d3LHIQOPCbbFNZvqJ1-8-38" target="d3LHIQOPCbbFNZvqJ1-8-17" edge="1">
          <mxGeometry width="50" height="50" relative="1" as="geometry">
            <mxPoint x="670" y="730" as="sourcePoint" />
            <mxPoint x="450" y="590" as="targetPoint" />
            <Array as="points">
              <mxPoint x="610" y="570" />
              <mxPoint x="440" y="590" />
              <mxPoint x="240" y="550" />
            </Array>
          </mxGeometry>
        </mxCell>
        <mxCell id="d3LHIQOPCbbFNZvqJ1-8-68" value="" style="endArrow=classic;html=1;rounded=0;exitX=0;exitY=0;exitDx=0;exitDy=0;entryX=0.5;entryY=1;entryDx=0;entryDy=0;fillColor=#d5e8d4;strokeColor=#82b366;gradientColor=#97d077;" parent="1" source="d3LHIQOPCbbFNZvqJ1-8-17" target="d3LHIQOPCbbFNZvqJ1-8-15" edge="1">
          <mxGeometry width="50" height="50" relative="1" as="geometry">
            <mxPoint x="-110" y="470" as="sourcePoint" />
            <mxPoint x="-60" y="420" as="targetPoint" />
          </mxGeometry>
        </mxCell>
        <mxCell id="d3LHIQOPCbbFNZvqJ1-8-69" value="Анализ остатков" style="text;html=1;whiteSpace=wrap;strokeColor=none;fillColor=none;align=center;verticalAlign=middle;rounded=0;" parent="1" vertex="1">
          <mxGeometry x="-130" y="410" width="60" height="30" as="geometry" />
        </mxCell>
        <mxCell id="d3LHIQOPCbbFNZvqJ1-8-70" value="" style="endArrow=classic;html=1;rounded=0;exitX=0.25;exitY=1;exitDx=0;exitDy=0;entryX=0.58;entryY=0.028;entryDx=0;entryDy=0;entryPerimeter=0;fillColor=#d5e8d4;gradientColor=#97d077;strokeColor=#82b366;" parent="1" source="d3LHIQOPCbbFNZvqJ1-8-16" target="d3LHIQOPCbbFNZvqJ1-8-17" edge="1">
          <mxGeometry width="50" height="50" relative="1" as="geometry">
            <mxPoint x="-90" y="560" as="sourcePoint" />
            <mxPoint x="-40" y="510" as="targetPoint" />
          </mxGeometry>
        </mxCell>
        <mxCell id="d3LHIQOPCbbFNZvqJ1-8-71" value="Данные о приемке" style="text;html=1;whiteSpace=wrap;strokeColor=none;fillColor=none;align=center;verticalAlign=middle;rounded=0;" parent="1" vertex="1">
          <mxGeometry x="10" y="425" width="60" height="30" as="geometry" />
        </mxCell>
        <mxCell id="d3LHIQOPCbbFNZvqJ1-8-74" value="" style="endArrow=classic;html=1;rounded=0;exitX=0.25;exitY=1;exitDx=0;exitDy=0;entryX=0.5;entryY=0;entryDx=0;entryDy=0;" parent="1" source="d3LHIQOPCbbFNZvqJ1-8-15" target="d3LHIQOPCbbFNZvqJ1-8-42" edge="1">
          <mxGeometry width="50" height="50" relative="1" as="geometry">
            <mxPoint x="-280" y="530" as="sourcePoint" />
            <mxPoint x="-230" y="480" as="targetPoint" />
            <Array as="points" />
          </mxGeometry>
        </mxCell>
        <mxCell id="d3LHIQOPCbbFNZvqJ1-8-75" value="" style="endArrow=classic;html=1;rounded=0;exitX=0.835;exitY=0.976;exitDx=0;exitDy=0;exitPerimeter=0;entryX=0.5;entryY=0;entryDx=0;entryDy=0;" parent="1" source="d3LHIQOPCbbFNZvqJ1-8-16" target="d3LHIQOPCbbFNZvqJ1-8-43" edge="1">
          <mxGeometry width="50" height="50" relative="1" as="geometry">
            <mxPoint x="80" y="590" as="sourcePoint" />
            <mxPoint x="130" y="540" as="targetPoint" />
          </mxGeometry>
        </mxCell>
        <mxCell id="d3LHIQOPCbbFNZvqJ1-8-76" value="" style="endArrow=classic;html=1;rounded=0;exitX=0.949;exitY=0.997;exitDx=0;exitDy=0;exitPerimeter=0;entryX=0.5;entryY=0;entryDx=0;entryDy=0;" parent="1" source="d3LHIQOPCbbFNZvqJ1-8-16" target="d3LHIQOPCbbFNZvqJ1-8-44" edge="1">
          <mxGeometry width="50" height="50" relative="1" as="geometry">
            <mxPoint x="170" y="610" as="sourcePoint" />
            <mxPoint x="220" y="560" as="targetPoint" />
          </mxGeometry>
        </mxCell>
        <mxCell id="d3LHIQOPCbbFNZvqJ1-8-77" value="" style="endArrow=classic;html=1;rounded=0;exitX=0.123;exitY=0.944;exitDx=0;exitDy=0;exitPerimeter=0;entryX=0.5;entryY=0;entryDx=0;entryDy=0;" parent="1" source="d3LHIQOPCbbFNZvqJ1-8-15" target="d3LHIQOPCbbFNZvqJ1-8-40" edge="1">
          <mxGeometry width="50" height="50" relative="1" as="geometry">
            <mxPoint x="-108" y="347" as="sourcePoint" />
            <mxPoint x="-255" y="650" as="targetPoint" />
            <Array as="points" />
          </mxGeometry>
        </mxCell>
        <mxCell id="d3LHIQOPCbbFNZvqJ1-8-40" value="Выход" style="rounded=0;whiteSpace=wrap;html=1;fillColor=#fff2cc;strokeColor=#d6b656;" parent="1" vertex="1">
          <mxGeometry x="-310" y="610" width="70" height="20" as="geometry" />
        </mxCell>
        <mxCell id="d3LHIQOPCbbFNZvqJ1-8-79" value="" style="endArrow=classic;html=1;rounded=0;exitX=0.5;exitY=1;exitDx=0;exitDy=0;entryX=1;entryY=0.5;entryDx=0;entryDy=0;" parent="1" source="d3LHIQOPCbbFNZvqJ1-8-17" target="d3LHIQOPCbbFNZvqJ1-8-45" edge="1">
          <mxGeometry width="50" height="50" relative="1" as="geometry">
            <mxPoint x="-100" y="910" as="sourcePoint" />
            <mxPoint x="-50" y="860" as="targetPoint" />
            <Array as="points">
              <mxPoint x="-10" y="740" />
            </Array>
          </mxGeometry>
        </mxCell>
        <mxCell id="d3LHIQOPCbbFNZvqJ1-8-80" value="" style="endArrow=classic;html=1;rounded=0;entryX=0;entryY=0.5;entryDx=0;entryDy=0;" parent="1" target="d3LHIQOPCbbFNZvqJ1-8-46" edge="1">
          <mxGeometry width="50" height="50" relative="1" as="geometry">
            <mxPoint y="510" as="sourcePoint" />
            <mxPoint x="90" y="830" as="targetPoint" />
            <Array as="points">
              <mxPoint y="740" />
            </Array>
          </mxGeometry>
        </mxCell>
      </root>
    </mxGraphModel>
  </diagram>
</mxfile>
